# xmcd
#
# Track frame offsets:
#	150
#	29938
#	54832
#	74227
#	95801
#	122598
#	143888
#	169273
#	193062
#	216257
#	242800
#	269026
#
# Disc length: 3948 seconds
#
# Revision: 1
# Processed by: cddbd v1.5.2PL0 Copyright (c) Steve Scherf et al.
# Submitted via: EZCDAudioConverter 8.0.2.1
#
DISCID=ca0f6a0c
DTITLE=Mạnh Quỳnh - Người Giàu Cũng Khóc
DYEAR=2000
DGENRE=
TTITLE0=Người Giàu Cũng Khóc
TTITLE1=Dĩ vãng buồn
TTITLE2=Trộm nhìn nhau
TTITLE3=Nhớ về em
TTITLE4=Hắt hiu tình buồn
TTITLE5=Đeem tóc rối
TTITLE6=Mình nhớ nhau không
TTITLE7=Vòng tay lỡ làng
TTITLE8=Hoa sứ nhà nàng
TTITLE9=Bâng khuâng nỗi nhớ
TTITLE10=Cơn mê tình ái
TTITLE11=Chuyện tình ong bướm
EXTD=
EXTT0=
EXTT1=
EXTT2=
EXTT3=
EXTT4=
EXTT5=
EXTT6=
EXTT7=
EXTT8=
EXTT9=
EXTT10=
EXTT11=
PLAYORDER=
